<mxfile host="app.diagrams.net" modified="2020-04-14T20:17:18.216Z" agent="5.0 (Windows)" etag="z7KBNvrUflwp1ymyvaAC" version="12.9.10" type="github">
  <diagram id="Oj47Rf4JTEBFHONzzMbd" name="Page-1">
    <mxGraphModel dx="1422" dy="769" grid="1" gridSize="10" guides="1" tooltips="1" connect="1" arrows="1" fold="1" page="1" pageScale="1" pageWidth="850" pageHeight="1100" math="0" shadow="0">
      <root>
        <mxCell id="0" />
        <mxCell id="1" parent="0" />
        <mxCell id="F3UvTCtTdYGmTemPXsex-13" value="Yes" style="edgeStyle=orthogonalEdgeStyle;rounded=0;orthogonalLoop=1;jettySize=auto;html=1;exitX=0.5;exitY=0;exitDx=0;exitDy=0;entryX=0.25;entryY=0;entryDx=0;entryDy=0;" edge="1" parent="1" source="F3UvTCtTdYGmTemPXsex-10" target="F3UvTCtTdYGmTemPXsex-24">
          <mxGeometry relative="1" as="geometry">
            <mxPoint x="470" y="650.14" as="targetPoint" />
            <Array as="points">
              <mxPoint x="470" y="250.14" />
              <mxPoint x="1655" y="250.14" />
            </Array>
          </mxGeometry>
        </mxCell>
        <mxCell id="F3UvTCtTdYGmTemPXsex-26" style="edgeStyle=orthogonalEdgeStyle;rounded=0;orthogonalLoop=1;jettySize=auto;html=1;exitX=1;exitY=0.5;exitDx=0;exitDy=0;entryX=0;entryY=0.5;entryDx=0;entryDy=0;" edge="1" parent="1" source="F3UvTCtTdYGmTemPXsex-10" target="F3UvTCtTdYGmTemPXsex-29">
          <mxGeometry relative="1" as="geometry">
            <mxPoint x="570" y="530.14" as="targetPoint" />
          </mxGeometry>
        </mxCell>
        <mxCell id="F3UvTCtTdYGmTemPXsex-30" value="No" style="text;html=1;align=center;verticalAlign=middle;resizable=0;points=[];" vertex="1" connectable="0" parent="F3UvTCtTdYGmTemPXsex-26">
          <mxGeometry x="-0.3091" y="3" relative="1" as="geometry">
            <mxPoint y="-7" as="offset" />
          </mxGeometry>
        </mxCell>
        <mxCell id="F3UvTCtTdYGmTemPXsex-10" value="&lt;div&gt;Auth&lt;/div&gt;&lt;div&gt;Check&lt;br&gt;&lt;/div&gt;" style="rhombus;whiteSpace=wrap;html=1;" vertex="1" parent="1">
          <mxGeometry x="430" y="490.14" width="80" height="80" as="geometry" />
        </mxCell>
        <mxCell id="F3UvTCtTdYGmTemPXsex-22" style="edgeStyle=orthogonalEdgeStyle;rounded=0;orthogonalLoop=1;jettySize=auto;html=1;exitX=1;exitY=0.5;exitDx=0;exitDy=0;exitPerimeter=0;entryX=0;entryY=0.5;entryDx=0;entryDy=0;" edge="1" parent="1" source="F3UvTCtTdYGmTemPXsex-18" target="F3UvTCtTdYGmTemPXsex-21">
          <mxGeometry relative="1" as="geometry" />
        </mxCell>
        <mxCell id="F3UvTCtTdYGmTemPXsex-18" value="Start" style="strokeWidth=2;html=1;shape=mxgraph.flowchart.start_1;whiteSpace=wrap;" vertex="1" parent="1">
          <mxGeometry x="60" y="270" width="100" height="60" as="geometry" />
        </mxCell>
        <mxCell id="F3UvTCtTdYGmTemPXsex-23" style="edgeStyle=orthogonalEdgeStyle;rounded=0;orthogonalLoop=1;jettySize=auto;html=1;exitX=1;exitY=0.5;exitDx=0;exitDy=0;entryX=0;entryY=0.5;entryDx=0;entryDy=0;" edge="1" parent="1" source="F3UvTCtTdYGmTemPXsex-21" target="F3UvTCtTdYGmTemPXsex-10">
          <mxGeometry relative="1" as="geometry" />
        </mxCell>
        <mxCell id="F3UvTCtTdYGmTemPXsex-21" value="Splash Screen" style="rounded=1;whiteSpace=wrap;html=1;absoluteArcSize=1;arcSize=14;strokeWidth=2;" vertex="1" parent="1">
          <mxGeometry x="240" y="480.14" width="100" height="100" as="geometry" />
        </mxCell>
        <mxCell id="F3UvTCtTdYGmTemPXsex-65" style="edgeStyle=orthogonalEdgeStyle;rounded=0;orthogonalLoop=1;jettySize=auto;html=1;entryX=0;entryY=0.5;entryDx=0;entryDy=0;exitX=0.75;exitY=0;exitDx=0;exitDy=0;" edge="1" parent="1" source="F3UvTCtTdYGmTemPXsex-24" target="F3UvTCtTdYGmTemPXsex-61">
          <mxGeometry relative="1" as="geometry">
            <mxPoint x="1740" y="330.14" as="sourcePoint" />
            <Array as="points">
              <mxPoint x="1705" y="200.14" />
            </Array>
          </mxGeometry>
        </mxCell>
        <mxCell id="F3UvTCtTdYGmTemPXsex-66" style="edgeStyle=orthogonalEdgeStyle;rounded=0;orthogonalLoop=1;jettySize=auto;html=1;exitX=1;exitY=0.25;exitDx=0;exitDy=0;entryX=0;entryY=0.5;entryDx=0;entryDy=0;" edge="1" parent="1" source="F3UvTCtTdYGmTemPXsex-24" target="F3UvTCtTdYGmTemPXsex-64">
          <mxGeometry relative="1" as="geometry" />
        </mxCell>
        <mxCell id="F3UvTCtTdYGmTemPXsex-67" style="edgeStyle=orthogonalEdgeStyle;rounded=0;orthogonalLoop=1;jettySize=auto;html=1;exitX=1;exitY=0.5;exitDx=0;exitDy=0;entryX=0;entryY=0.5;entryDx=0;entryDy=0;" edge="1" parent="1" source="F3UvTCtTdYGmTemPXsex-24" target="F3UvTCtTdYGmTemPXsex-62">
          <mxGeometry relative="1" as="geometry">
            <Array as="points">
              <mxPoint x="1810" y="380.14" />
              <mxPoint x="1810" y="480.14" />
            </Array>
          </mxGeometry>
        </mxCell>
        <mxCell id="F3UvTCtTdYGmTemPXsex-68" style="edgeStyle=orthogonalEdgeStyle;rounded=0;orthogonalLoop=1;jettySize=auto;html=1;exitX=1;exitY=0.75;exitDx=0;exitDy=0;entryX=0;entryY=0.6;entryDx=0;entryDy=0;entryPerimeter=0;" edge="1" parent="1" source="F3UvTCtTdYGmTemPXsex-24" target="F3UvTCtTdYGmTemPXsex-63">
          <mxGeometry relative="1" as="geometry">
            <Array as="points">
              <mxPoint x="1790" y="405.14" />
              <mxPoint x="1790" y="630.14" />
            </Array>
          </mxGeometry>
        </mxCell>
        <mxCell id="F3UvTCtTdYGmTemPXsex-24" value="Main Screen" style="rounded=1;whiteSpace=wrap;html=1;absoluteArcSize=1;arcSize=14;strokeWidth=2;" vertex="1" parent="1">
          <mxGeometry x="1630" y="330.14" width="100" height="100" as="geometry" />
        </mxCell>
        <mxCell id="F3UvTCtTdYGmTemPXsex-37" style="edgeStyle=orthogonalEdgeStyle;rounded=0;orthogonalLoop=1;jettySize=auto;html=1;entryX=0;entryY=0.5;entryDx=0;entryDy=0;" edge="1" parent="1" source="F3UvTCtTdYGmTemPXsex-27" target="F3UvTCtTdYGmTemPXsex-36">
          <mxGeometry relative="1" as="geometry" />
        </mxCell>
        <mxCell id="F3UvTCtTdYGmTemPXsex-27" value="Login" style="rounded=1;whiteSpace=wrap;html=1;absoluteArcSize=1;arcSize=14;strokeWidth=2;" vertex="1" parent="1">
          <mxGeometry x="840" y="330.14" width="100" height="100" as="geometry" />
        </mxCell>
        <mxCell id="F3UvTCtTdYGmTemPXsex-33" style="edgeStyle=orthogonalEdgeStyle;rounded=0;orthogonalLoop=1;jettySize=auto;html=1;entryX=0;entryY=0.5;entryDx=0;entryDy=0;exitX=0.5;exitY=0;exitDx=0;exitDy=0;" edge="1" parent="1" source="F3UvTCtTdYGmTemPXsex-29" target="F3UvTCtTdYGmTemPXsex-27">
          <mxGeometry relative="1" as="geometry" />
        </mxCell>
        <mxCell id="F3UvTCtTdYGmTemPXsex-34" style="edgeStyle=orthogonalEdgeStyle;rounded=0;orthogonalLoop=1;jettySize=auto;html=1;exitX=1;exitY=0.5;exitDx=0;exitDy=0;entryX=0;entryY=0.5;entryDx=0;entryDy=0;" edge="1" parent="1" source="F3UvTCtTdYGmTemPXsex-29" target="F3UvTCtTdYGmTemPXsex-31">
          <mxGeometry relative="1" as="geometry" />
        </mxCell>
        <mxCell id="F3UvTCtTdYGmTemPXsex-35" style="edgeStyle=orthogonalEdgeStyle;rounded=0;orthogonalLoop=1;jettySize=auto;html=1;exitX=1;exitY=0.75;exitDx=0;exitDy=0;entryX=0;entryY=0.5;entryDx=0;entryDy=0;" edge="1" parent="1" source="F3UvTCtTdYGmTemPXsex-29" target="F3UvTCtTdYGmTemPXsex-32">
          <mxGeometry relative="1" as="geometry" />
        </mxCell>
        <mxCell id="F3UvTCtTdYGmTemPXsex-29" value="&lt;div&gt;Login&lt;/div&gt;&lt;div&gt;Register&lt;/div&gt;&lt;div&gt;Forgot&lt;br&gt;&lt;/div&gt;" style="rounded=1;whiteSpace=wrap;html=1;absoluteArcSize=1;arcSize=14;strokeWidth=2;" vertex="1" parent="1">
          <mxGeometry x="620" y="480.14" width="100" height="100" as="geometry" />
        </mxCell>
        <mxCell id="F3UvTCtTdYGmTemPXsex-42" style="edgeStyle=orthogonalEdgeStyle;rounded=0;orthogonalLoop=1;jettySize=auto;html=1;exitX=1;exitY=0.5;exitDx=0;exitDy=0;entryX=0;entryY=0.5;entryDx=0;entryDy=0;" edge="1" parent="1" source="F3UvTCtTdYGmTemPXsex-31" target="F3UvTCtTdYGmTemPXsex-41">
          <mxGeometry relative="1" as="geometry" />
        </mxCell>
        <mxCell id="F3UvTCtTdYGmTemPXsex-31" value="Register" style="rounded=1;whiteSpace=wrap;html=1;absoluteArcSize=1;arcSize=14;strokeWidth=2;" vertex="1" parent="1">
          <mxGeometry x="840" y="480.14" width="100" height="100" as="geometry" />
        </mxCell>
        <mxCell id="F3UvTCtTdYGmTemPXsex-53" style="edgeStyle=orthogonalEdgeStyle;rounded=0;orthogonalLoop=1;jettySize=auto;html=1;entryX=0;entryY=0.5;entryDx=0;entryDy=0;" edge="1" parent="1" source="F3UvTCtTdYGmTemPXsex-32" target="F3UvTCtTdYGmTemPXsex-52">
          <mxGeometry relative="1" as="geometry" />
        </mxCell>
        <mxCell id="F3UvTCtTdYGmTemPXsex-32" value="Forgot" style="rounded=1;whiteSpace=wrap;html=1;absoluteArcSize=1;arcSize=14;strokeWidth=2;" vertex="1" parent="1">
          <mxGeometry x="840" y="640.14" width="100" height="100" as="geometry" />
        </mxCell>
        <mxCell id="F3UvTCtTdYGmTemPXsex-39" style="edgeStyle=orthogonalEdgeStyle;rounded=0;orthogonalLoop=1;jettySize=auto;html=1;exitX=1;exitY=0.5;exitDx=0;exitDy=0;entryX=0;entryY=0.5;entryDx=0;entryDy=0;entryPerimeter=0;" edge="1" parent="1" source="F3UvTCtTdYGmTemPXsex-36" target="F3UvTCtTdYGmTemPXsex-38">
          <mxGeometry relative="1" as="geometry" />
        </mxCell>
        <mxCell id="F3UvTCtTdYGmTemPXsex-36" value="&lt;div&gt;email&lt;/div&gt;&lt;div&gt;Password&lt;br&gt;&lt;/div&gt;" style="html=1;strokeWidth=2;shape=manualInput;whiteSpace=wrap;rounded=1;size=26;arcSize=11;" vertex="1" parent="1">
          <mxGeometry x="1040" y="350.14" width="100" height="60" as="geometry" />
        </mxCell>
        <mxCell id="F3UvTCtTdYGmTemPXsex-40" value="Yes" style="edgeStyle=orthogonalEdgeStyle;rounded=0;orthogonalLoop=1;jettySize=auto;html=1;entryX=0;entryY=0.5;entryDx=0;entryDy=0;" edge="1" parent="1" source="F3UvTCtTdYGmTemPXsex-38" target="F3UvTCtTdYGmTemPXsex-24">
          <mxGeometry relative="1" as="geometry" />
        </mxCell>
        <mxCell id="F3UvTCtTdYGmTemPXsex-43" style="edgeStyle=orthogonalEdgeStyle;rounded=0;orthogonalLoop=1;jettySize=auto;html=1;entryX=0.25;entryY=0;entryDx=0;entryDy=0;" edge="1" parent="1" source="F3UvTCtTdYGmTemPXsex-38" target="F3UvTCtTdYGmTemPXsex-29">
          <mxGeometry relative="1" as="geometry">
            <Array as="points">
              <mxPoint x="1285" y="280" />
              <mxPoint x="645" y="280" />
            </Array>
          </mxGeometry>
        </mxCell>
        <mxCell id="F3UvTCtTdYGmTemPXsex-44" value="No" style="text;html=1;align=center;verticalAlign=middle;resizable=0;points=[];" vertex="1" connectable="0" parent="F3UvTCtTdYGmTemPXsex-43">
          <mxGeometry x="-0.7686" y="1" relative="1" as="geometry">
            <mxPoint x="66" y="39" as="offset" />
          </mxGeometry>
        </mxCell>
        <mxCell id="F3UvTCtTdYGmTemPXsex-38" value="Login Control" style="strokeWidth=2;html=1;shape=mxgraph.flowchart.decision;whiteSpace=wrap;" vertex="1" parent="1">
          <mxGeometry x="1235" y="330.14" width="100" height="100" as="geometry" />
        </mxCell>
        <mxCell id="F3UvTCtTdYGmTemPXsex-46" style="edgeStyle=orthogonalEdgeStyle;rounded=0;orthogonalLoop=1;jettySize=auto;html=1;entryX=0;entryY=0.5;entryDx=0;entryDy=0;entryPerimeter=0;" edge="1" parent="1" source="F3UvTCtTdYGmTemPXsex-41" target="F3UvTCtTdYGmTemPXsex-45">
          <mxGeometry relative="1" as="geometry" />
        </mxCell>
        <mxCell id="F3UvTCtTdYGmTemPXsex-41" value="&lt;div&gt;email&lt;/div&gt;&lt;div&gt;Password&lt;br&gt;&lt;/div&gt;" style="html=1;strokeWidth=2;shape=manualInput;whiteSpace=wrap;rounded=1;size=26;arcSize=11;" vertex="1" parent="1">
          <mxGeometry x="1040" y="500.14" width="100" height="60" as="geometry" />
        </mxCell>
        <mxCell id="F3UvTCtTdYGmTemPXsex-48" value="No" style="edgeStyle=orthogonalEdgeStyle;rounded=0;orthogonalLoop=1;jettySize=auto;html=1;" edge="1" parent="1" source="F3UvTCtTdYGmTemPXsex-45" target="F3UvTCtTdYGmTemPXsex-47">
          <mxGeometry x="-0.6471" y="10" relative="1" as="geometry">
            <mxPoint as="offset" />
          </mxGeometry>
        </mxCell>
        <mxCell id="F3UvTCtTdYGmTemPXsex-49" style="edgeStyle=orthogonalEdgeStyle;rounded=0;orthogonalLoop=1;jettySize=auto;html=1;entryX=0.75;entryY=0;entryDx=0;entryDy=0;" edge="1" parent="1" source="F3UvTCtTdYGmTemPXsex-45" target="F3UvTCtTdYGmTemPXsex-29">
          <mxGeometry relative="1" as="geometry">
            <Array as="points">
              <mxPoint x="1285" y="460" />
              <mxPoint x="695" y="460" />
            </Array>
          </mxGeometry>
        </mxCell>
        <mxCell id="F3UvTCtTdYGmTemPXsex-50" value="Already" style="text;html=1;align=center;verticalAlign=middle;resizable=0;points=[];" vertex="1" connectable="0" parent="F3UvTCtTdYGmTemPXsex-49">
          <mxGeometry x="-0.854" y="1" relative="1" as="geometry">
            <mxPoint x="51" y="9" as="offset" />
          </mxGeometry>
        </mxCell>
        <mxCell id="F3UvTCtTdYGmTemPXsex-45" value="Registered?" style="strokeWidth=2;html=1;shape=mxgraph.flowchart.decision;whiteSpace=wrap;" vertex="1" parent="1">
          <mxGeometry x="1235" y="480.14" width="100" height="100" as="geometry" />
        </mxCell>
        <mxCell id="F3UvTCtTdYGmTemPXsex-51" style="edgeStyle=orthogonalEdgeStyle;rounded=0;orthogonalLoop=1;jettySize=auto;html=1;entryX=0.25;entryY=1;entryDx=0;entryDy=0;" edge="1" parent="1" source="F3UvTCtTdYGmTemPXsex-47" target="F3UvTCtTdYGmTemPXsex-24">
          <mxGeometry relative="1" as="geometry" />
        </mxCell>
        <mxCell id="F3UvTCtTdYGmTemPXsex-47" value="Register User" style="rounded=1;whiteSpace=wrap;html=1;absoluteArcSize=1;arcSize=14;strokeWidth=2;" vertex="1" parent="1">
          <mxGeometry x="1420" y="480.14" width="100" height="100" as="geometry" />
        </mxCell>
        <mxCell id="F3UvTCtTdYGmTemPXsex-55" style="edgeStyle=orthogonalEdgeStyle;rounded=0;orthogonalLoop=1;jettySize=auto;html=1;exitX=1;exitY=0.5;exitDx=0;exitDy=0;entryX=0;entryY=0.5;entryDx=0;entryDy=0;" edge="1" parent="1" source="F3UvTCtTdYGmTemPXsex-52" target="F3UvTCtTdYGmTemPXsex-56">
          <mxGeometry relative="1" as="geometry">
            <mxPoint x="1240" y="690.14" as="targetPoint" />
          </mxGeometry>
        </mxCell>
        <mxCell id="F3UvTCtTdYGmTemPXsex-52" value="email" style="html=1;strokeWidth=2;shape=manualInput;whiteSpace=wrap;rounded=1;size=26;arcSize=11;" vertex="1" parent="1">
          <mxGeometry x="1040" y="660.14" width="100" height="60" as="geometry" />
        </mxCell>
        <mxCell id="F3UvTCtTdYGmTemPXsex-58" style="edgeStyle=orthogonalEdgeStyle;rounded=0;orthogonalLoop=1;jettySize=auto;html=1;entryX=0;entryY=0.5;entryDx=0;entryDy=0;" edge="1" parent="1" source="F3UvTCtTdYGmTemPXsex-56" target="F3UvTCtTdYGmTemPXsex-57">
          <mxGeometry relative="1" as="geometry" />
        </mxCell>
        <mxCell id="F3UvTCtTdYGmTemPXsex-56" value="&lt;div&gt;Send Reset Email&lt;br&gt;&lt;/div&gt;" style="rounded=1;whiteSpace=wrap;html=1;absoluteArcSize=1;arcSize=14;strokeWidth=2;" vertex="1" parent="1">
          <mxGeometry x="1240" y="640.14" width="100" height="100" as="geometry" />
        </mxCell>
        <mxCell id="F3UvTCtTdYGmTemPXsex-60" style="edgeStyle=orthogonalEdgeStyle;rounded=0;orthogonalLoop=1;jettySize=auto;html=1;entryX=0.5;entryY=1;entryDx=0;entryDy=0;" edge="1" parent="1" source="F3UvTCtTdYGmTemPXsex-57" target="F3UvTCtTdYGmTemPXsex-24">
          <mxGeometry relative="1" as="geometry" />
        </mxCell>
        <mxCell id="F3UvTCtTdYGmTemPXsex-57" value="Renew Email" style="rounded=1;whiteSpace=wrap;html=1;absoluteArcSize=1;arcSize=14;strokeWidth=2;" vertex="1" parent="1">
          <mxGeometry x="1420" y="640.14" width="100" height="100" as="geometry" />
        </mxCell>
        <mxCell id="F3UvTCtTdYGmTemPXsex-61" value="Leader Board" style="rounded=1;whiteSpace=wrap;html=1;absoluteArcSize=1;arcSize=14;strokeWidth=2;" vertex="1" parent="1">
          <mxGeometry x="1850" y="150.14" width="100" height="100" as="geometry" />
        </mxCell>
        <mxCell id="F3UvTCtTdYGmTemPXsex-85" style="edgeStyle=orthogonalEdgeStyle;rounded=0;orthogonalLoop=1;jettySize=auto;html=1;exitX=1;exitY=0.5;exitDx=0;exitDy=0;entryX=0;entryY=0.5;entryDx=0;entryDy=0;" edge="1" parent="1" source="F3UvTCtTdYGmTemPXsex-62" target="F3UvTCtTdYGmTemPXsex-84">
          <mxGeometry relative="1" as="geometry" />
        </mxCell>
        <mxCell id="F3UvTCtTdYGmTemPXsex-62" value="Quiz Page" style="rounded=1;whiteSpace=wrap;html=1;absoluteArcSize=1;arcSize=14;strokeWidth=2;" vertex="1" parent="1">
          <mxGeometry x="1850" y="430.14" width="100" height="100" as="geometry" />
        </mxCell>
        <mxCell id="F3UvTCtTdYGmTemPXsex-63" value="&lt;div&gt;Add Question&lt;/div&gt;" style="rounded=1;whiteSpace=wrap;html=1;absoluteArcSize=1;arcSize=14;strokeWidth=2;" vertex="1" parent="1">
          <mxGeometry x="1850" y="570.14" width="100" height="100" as="geometry" />
        </mxCell>
        <mxCell id="F3UvTCtTdYGmTemPXsex-70" style="edgeStyle=orthogonalEdgeStyle;rounded=0;orthogonalLoop=1;jettySize=auto;html=1;exitX=1;exitY=0.75;exitDx=0;exitDy=0;entryX=1;entryY=0.25;entryDx=0;entryDy=0;" edge="1" parent="1" source="F3UvTCtTdYGmTemPXsex-64" target="F3UvTCtTdYGmTemPXsex-62">
          <mxGeometry relative="1" as="geometry" />
        </mxCell>
        <mxCell id="F3UvTCtTdYGmTemPXsex-71" style="edgeStyle=orthogonalEdgeStyle;rounded=0;orthogonalLoop=1;jettySize=auto;html=1;entryX=1;entryY=0.5;entryDx=0;entryDy=0;exitX=1;exitY=0.5;exitDx=0;exitDy=0;" edge="1" parent="1" source="F3UvTCtTdYGmTemPXsex-64" target="F3UvTCtTdYGmTemPXsex-63">
          <mxGeometry relative="1" as="geometry">
            <Array as="points">
              <mxPoint x="1990" y="340.14" />
              <mxPoint x="1990" y="620.14" />
            </Array>
          </mxGeometry>
        </mxCell>
        <mxCell id="F3UvTCtTdYGmTemPXsex-101" style="edgeStyle=orthogonalEdgeStyle;rounded=0;orthogonalLoop=1;jettySize=auto;html=1;exitX=1;exitY=0.25;exitDx=0;exitDy=0;entryX=1.02;entryY=0.57;entryDx=0;entryDy=0;entryPerimeter=0;" edge="1" parent="1" source="F3UvTCtTdYGmTemPXsex-64" target="F3UvTCtTdYGmTemPXsex-100">
          <mxGeometry relative="1" as="geometry">
            <Array as="points">
              <mxPoint x="2010" y="315.14" />
              <mxPoint x="2010" y="787.14" />
            </Array>
          </mxGeometry>
        </mxCell>
        <mxCell id="F3UvTCtTdYGmTemPXsex-117" style="edgeStyle=orthogonalEdgeStyle;rounded=0;orthogonalLoop=1;jettySize=auto;html=1;entryX=0.5;entryY=1;entryDx=0;entryDy=0;" edge="1" parent="1" source="F3UvTCtTdYGmTemPXsex-64" target="F3UvTCtTdYGmTemPXsex-61">
          <mxGeometry relative="1" as="geometry" />
        </mxCell>
        <mxCell id="F3UvTCtTdYGmTemPXsex-64" value="DashBoard" style="rounded=1;whiteSpace=wrap;html=1;absoluteArcSize=1;arcSize=14;strokeWidth=2;" vertex="1" parent="1">
          <mxGeometry x="1850" y="290.14" width="100" height="100" as="geometry" />
        </mxCell>
        <mxCell id="F3UvTCtTdYGmTemPXsex-93" style="edgeStyle=orthogonalEdgeStyle;rounded=0;orthogonalLoop=1;jettySize=auto;html=1;entryX=0;entryY=0.33;entryDx=0;entryDy=0;entryPerimeter=0;" edge="1" parent="1" source="F3UvTCtTdYGmTemPXsex-77" target="F3UvTCtTdYGmTemPXsex-89">
          <mxGeometry relative="1" as="geometry" />
        </mxCell>
        <mxCell id="F3UvTCtTdYGmTemPXsex-77" value="Easy" style="rounded=1;whiteSpace=wrap;html=1;absoluteArcSize=1;arcSize=14;strokeWidth=2;" vertex="1" parent="1">
          <mxGeometry x="2270" y="280.14" width="100" height="100" as="geometry" />
        </mxCell>
        <mxCell id="F3UvTCtTdYGmTemPXsex-94" style="edgeStyle=orthogonalEdgeStyle;rounded=0;orthogonalLoop=1;jettySize=auto;html=1;entryX=0;entryY=0.5;entryDx=0;entryDy=0;" edge="1" parent="1" source="F3UvTCtTdYGmTemPXsex-78" target="F3UvTCtTdYGmTemPXsex-89">
          <mxGeometry relative="1" as="geometry" />
        </mxCell>
        <mxCell id="F3UvTCtTdYGmTemPXsex-78" value="Medium" style="rounded=1;whiteSpace=wrap;html=1;absoluteArcSize=1;arcSize=14;strokeWidth=2;" vertex="1" parent="1">
          <mxGeometry x="2270" y="430.14" width="100" height="100" as="geometry" />
        </mxCell>
        <mxCell id="F3UvTCtTdYGmTemPXsex-95" style="edgeStyle=orthogonalEdgeStyle;rounded=0;orthogonalLoop=1;jettySize=auto;html=1;entryX=-0.01;entryY=0.65;entryDx=0;entryDy=0;entryPerimeter=0;" edge="1" parent="1" source="F3UvTCtTdYGmTemPXsex-79" target="F3UvTCtTdYGmTemPXsex-89">
          <mxGeometry relative="1" as="geometry" />
        </mxCell>
        <mxCell id="F3UvTCtTdYGmTemPXsex-79" value="Expert" style="rounded=1;whiteSpace=wrap;html=1;absoluteArcSize=1;arcSize=14;strokeWidth=2;" vertex="1" parent="1">
          <mxGeometry x="2270" y="580.14" width="100" height="100" as="geometry" />
        </mxCell>
        <mxCell id="F3UvTCtTdYGmTemPXsex-86" style="edgeStyle=orthogonalEdgeStyle;rounded=0;orthogonalLoop=1;jettySize=auto;html=1;entryX=0;entryY=0.5;entryDx=0;entryDy=0;exitX=0.5;exitY=0;exitDx=0;exitDy=0;" edge="1" parent="1" source="F3UvTCtTdYGmTemPXsex-84" target="F3UvTCtTdYGmTemPXsex-77">
          <mxGeometry relative="1" as="geometry" />
        </mxCell>
        <mxCell id="F3UvTCtTdYGmTemPXsex-87" style="edgeStyle=orthogonalEdgeStyle;rounded=0;orthogonalLoop=1;jettySize=auto;html=1;exitX=1;exitY=0.5;exitDx=0;exitDy=0;entryX=0;entryY=0.5;entryDx=0;entryDy=0;" edge="1" parent="1" source="F3UvTCtTdYGmTemPXsex-84" target="F3UvTCtTdYGmTemPXsex-78">
          <mxGeometry relative="1" as="geometry" />
        </mxCell>
        <mxCell id="F3UvTCtTdYGmTemPXsex-88" style="edgeStyle=orthogonalEdgeStyle;rounded=0;orthogonalLoop=1;jettySize=auto;html=1;exitX=0.625;exitY=1;exitDx=0;exitDy=0;entryX=0;entryY=0.5;entryDx=0;entryDy=0;" edge="1" parent="1" source="F3UvTCtTdYGmTemPXsex-84" target="F3UvTCtTdYGmTemPXsex-79">
          <mxGeometry relative="1" as="geometry" />
        </mxCell>
        <mxCell id="F3UvTCtTdYGmTemPXsex-84" value="Choose Level" style="verticalLabelPosition=bottom;verticalAlign=top;html=1;shape=hexagon;perimeter=hexagonPerimeter2;arcSize=6;size=0.27;" vertex="1" parent="1">
          <mxGeometry x="2030" y="450.14" width="100" height="60" as="geometry" />
        </mxCell>
        <mxCell id="F3UvTCtTdYGmTemPXsex-99" style="edgeStyle=orthogonalEdgeStyle;rounded=0;orthogonalLoop=1;jettySize=auto;html=1;exitX=1;exitY=0.5;exitDx=0;exitDy=0;entryX=0;entryY=0.5;entryDx=0;entryDy=0;" edge="1" parent="1" source="F3UvTCtTdYGmTemPXsex-89" target="F3UvTCtTdYGmTemPXsex-98">
          <mxGeometry relative="1" as="geometry" />
        </mxCell>
        <mxCell id="F3UvTCtTdYGmTemPXsex-89" value="Quiz Game" style="rounded=1;whiteSpace=wrap;html=1;absoluteArcSize=1;arcSize=14;strokeWidth=2;" vertex="1" parent="1">
          <mxGeometry x="2480" y="430.14" width="100" height="100" as="geometry" />
        </mxCell>
        <mxCell id="F3UvTCtTdYGmTemPXsex-109" style="edgeStyle=orthogonalEdgeStyle;rounded=0;orthogonalLoop=1;jettySize=auto;html=1;entryX=0;entryY=0.5;entryDx=0;entryDy=0;" edge="1" parent="1" source="F3UvTCtTdYGmTemPXsex-98" target="F3UvTCtTdYGmTemPXsex-108">
          <mxGeometry relative="1" as="geometry" />
        </mxCell>
        <mxCell id="F3UvTCtTdYGmTemPXsex-110" style="edgeStyle=orthogonalEdgeStyle;rounded=0;orthogonalLoop=1;jettySize=auto;html=1;entryX=0.375;entryY=1;entryDx=0;entryDy=0;" edge="1" parent="1" source="F3UvTCtTdYGmTemPXsex-98" target="F3UvTCtTdYGmTemPXsex-84">
          <mxGeometry relative="1" as="geometry">
            <Array as="points">
              <mxPoint x="2700" y="750.14" />
              <mxPoint x="2068" y="750.14" />
            </Array>
          </mxGeometry>
        </mxCell>
        <mxCell id="F3UvTCtTdYGmTemPXsex-111" value="Start&amp;nbsp; New Game" style="text;html=1;align=center;verticalAlign=middle;resizable=0;points=[];" vertex="1" connectable="0" parent="F3UvTCtTdYGmTemPXsex-110">
          <mxGeometry x="-0.8792" relative="1" as="geometry">
            <mxPoint x="50" y="-26" as="offset" />
          </mxGeometry>
        </mxCell>
        <mxCell id="F3UvTCtTdYGmTemPXsex-112" style="edgeStyle=orthogonalEdgeStyle;rounded=0;orthogonalLoop=1;jettySize=auto;html=1;entryX=0.6;entryY=0;entryDx=0;entryDy=0;entryPerimeter=0;" edge="1" parent="1" source="F3UvTCtTdYGmTemPXsex-98" target="F3UvTCtTdYGmTemPXsex-24">
          <mxGeometry relative="1" as="geometry">
            <Array as="points">
              <mxPoint x="2710" y="120.13999999999999" />
              <mxPoint x="1690" y="120.13999999999999" />
            </Array>
          </mxGeometry>
        </mxCell>
        <mxCell id="F3UvTCtTdYGmTemPXsex-113" value="Main Page" style="text;html=1;align=center;verticalAlign=middle;resizable=0;points=[];" vertex="1" connectable="0" parent="F3UvTCtTdYGmTemPXsex-112">
          <mxGeometry x="-0.9169" y="1" relative="1" as="geometry">
            <mxPoint as="offset" />
          </mxGeometry>
        </mxCell>
        <mxCell id="F3UvTCtTdYGmTemPXsex-98" value="Game Over" style="rounded=1;whiteSpace=wrap;html=1;absoluteArcSize=1;arcSize=14;strokeWidth=2;" vertex="1" parent="1">
          <mxGeometry x="2660" y="430.14" width="100" height="100" as="geometry" />
        </mxCell>
        <mxCell id="F3UvTCtTdYGmTemPXsex-104" style="edgeStyle=orthogonalEdgeStyle;rounded=0;orthogonalLoop=1;jettySize=auto;html=1;entryX=0.5;entryY=1;entryDx=0;entryDy=0;" edge="1" parent="1" source="F3UvTCtTdYGmTemPXsex-100" target="F3UvTCtTdYGmTemPXsex-63">
          <mxGeometry relative="1" as="geometry" />
        </mxCell>
        <mxCell id="F3UvTCtTdYGmTemPXsex-105" style="edgeStyle=orthogonalEdgeStyle;rounded=0;orthogonalLoop=1;jettySize=auto;html=1;entryX=0.5;entryY=0;entryDx=0;entryDy=0;" edge="1" parent="1" source="F3UvTCtTdYGmTemPXsex-100" target="F3UvTCtTdYGmTemPXsex-103">
          <mxGeometry relative="1" as="geometry" />
        </mxCell>
        <mxCell id="F3UvTCtTdYGmTemPXsex-100" value="Question List" style="rounded=1;whiteSpace=wrap;html=1;absoluteArcSize=1;arcSize=14;strokeWidth=2;" vertex="1" parent="1">
          <mxGeometry x="1850" y="730.14" width="100" height="100" as="geometry" />
        </mxCell>
        <mxCell id="F3UvTCtTdYGmTemPXsex-106" style="edgeStyle=orthogonalEdgeStyle;rounded=0;orthogonalLoop=1;jettySize=auto;html=1;entryX=0.25;entryY=1;entryDx=0;entryDy=0;" edge="1" parent="1" source="F3UvTCtTdYGmTemPXsex-103" target="F3UvTCtTdYGmTemPXsex-100">
          <mxGeometry relative="1" as="geometry" />
        </mxCell>
        <mxCell id="F3UvTCtTdYGmTemPXsex-103" value="&lt;div&gt;View&lt;/div&gt;&lt;div&gt;Edit&lt;/div&gt;&lt;div&gt;Delete &lt;/div&gt;" style="rounded=1;whiteSpace=wrap;html=1;absoluteArcSize=1;arcSize=14;strokeWidth=2;" vertex="1" parent="1">
          <mxGeometry x="1740" y="880.14" width="100" height="100" as="geometry" />
        </mxCell>
        <mxCell id="F3UvTCtTdYGmTemPXsex-114" style="edgeStyle=orthogonalEdgeStyle;rounded=0;orthogonalLoop=1;jettySize=auto;html=1;entryX=0;entryY=0.75;entryDx=0;entryDy=0;" edge="1" parent="1" source="F3UvTCtTdYGmTemPXsex-108" target="F3UvTCtTdYGmTemPXsex-84">
          <mxGeometry relative="1" as="geometry">
            <Array as="points">
              <mxPoint x="2890" y="800.14" />
              <mxPoint x="2041" y="800.14" />
              <mxPoint x="2041" y="492.14" />
            </Array>
          </mxGeometry>
        </mxCell>
        <mxCell id="F3UvTCtTdYGmTemPXsex-116" style="edgeStyle=orthogonalEdgeStyle;rounded=0;orthogonalLoop=1;jettySize=auto;html=1;exitX=0.75;exitY=0;exitDx=0;exitDy=0;entryX=0.5;entryY=0;entryDx=0;entryDy=0;" edge="1" parent="1" source="F3UvTCtTdYGmTemPXsex-108" target="F3UvTCtTdYGmTemPXsex-24">
          <mxGeometry relative="1" as="geometry">
            <mxPoint x="1650" y="290.14" as="targetPoint" />
            <Array as="points">
              <mxPoint x="2915" y="70.13999999999999" />
              <mxPoint x="1680" y="70.13999999999999" />
            </Array>
          </mxGeometry>
        </mxCell>
        <mxCell id="F3UvTCtTdYGmTemPXsex-108" value="Answers" style="rounded=1;whiteSpace=wrap;html=1;absoluteArcSize=1;arcSize=14;strokeWidth=2;" vertex="1" parent="1">
          <mxGeometry x="2840" y="430.14" width="100" height="100" as="geometry" />
        </mxCell>
        <mxCell id="F3UvTCtTdYGmTemPXsex-115" value="Start&amp;nbsp; New Game" style="text;html=1;align=center;verticalAlign=middle;resizable=0;points=[];" vertex="1" connectable="0" parent="1">
          <mxGeometry x="2889.9988235294118" y="440.14235294117657" as="geometry">
            <mxPoint x="50" y="-26" as="offset" />
          </mxGeometry>
        </mxCell>
      </root>
    </mxGraphModel>
  </diagram>
</mxfile>
